<svg width="130" height="68" viewBox="0 0 130 68" fill="none" xmlns="http://www.w3.org/2000/svg">
<path d="M8.78379 58.8215C8.96044 58.5201 9.17529 58.0474 9.26601 57.6855C9.43038 57.298 9.58385 56.9095 9.74482 56.5165C10.0524 55.7652 10.3164 55.0195 10.579 54.2343C10.6731 53.9521 10.7754 53.6727 10.8566 53.3805C10.9705 52.9792 11.2249 52.4341 11.2229 51.9861C11.4132 51.1689 11.5325 50.2133 11.1997 49.4236C11.0285 49.0186 10.5169 48.5102 10.1506 48.6714C9.8178 48.5221 9.26464 48.8638 9.26464 49.3778C9.25987 49.5949 9.32262 49.79 9.46108 49.9165C9.64456 50.0786 9.8253 49.9385 10.0183 49.9165C10.3669 49.8725 10.4801 50.1024 10.4801 50.5303C10.4808 51.1515 10.3403 52.0383 10.0961 52.5596C9.97263 52.8262 9.95285 53.1578 9.83894 53.4327C9.72981 53.6993 9.58044 54.0859 9.52724 54.3763C9.43925 54.6668 9.29261 54.9306 9.21895 55.2256C9.1828 55.3713 9.14119 55.4547 9.08117 55.5857C9.02456 55.6974 8.96999 55.8275 8.92361 55.9475C8.89428 56.0245 8.87996 56.106 8.87791 56.1922C8.81857 56.248 8.77219 56.3204 8.74218 56.4093C8.52119 56.7767 8.41752 57.2393 8.25791 57.6461C8.10172 57.8779 7.93325 58.2746 7.83571 58.5476C7.68361 58.7959 7.5738 59.0854 7.41965 59.3337C7.20344 59.6855 6.95312 60.1756 6.81193 60.5998C6.72326 60.8646 6.55002 61.0387 6.42997 61.2943C6.26423 61.6442 6.15442 62.0116 5.94434 62.3213C5.58557 62.8554 5.27182 63.4179 4.92738 63.9722C4.53997 64.4999 4.25895 65.2136 3.81084 65.6653C3.53801 65.7578 3.31906 66.6062 3.02373 65.9942C2.95075 65.8009 3.00122 65.4848 2.97121 65.2631C2.93915 65.0267 2.98144 64.8022 2.98144 64.5558C2.98144 64.182 3.07011 63.9154 3.1199 63.5517C3.1199 63.2164 3.23108 62.8481 3.30133 62.5182C3.4548 62.0977 3.48481 61.6076 3.60963 61.1761C3.67647 60.9425 3.72762 60.6374 3.72762 60.3854C3.72762 60.2434 3.83812 60.1591 3.85926 60.0107C3.96157 59.8009 4.02364 59.4445 4.09185 59.2018C4.16346 58.9406 4.1962 58.6557 4.27601 58.4029C4.40082 58.0062 4.43288 57.5847 4.57475 57.2054C4.71594 56.8234 4.69889 56.3397 4.8694 55.9869C4.95262 55.8147 5.44302 54.1271 5.47713 53.9329C5.53851 53.7424 5.58012 53.5463 5.63605 53.3493C5.70494 53.1065 5.81338 52.8179 5.81338 52.5541C5.85363 52.3562 5.92115 52.2334 5.97981 52.0374C6.07189 51.7259 6.06234 51.3814 6.13055 51.0598C6.16942 50.8766 6.2274 50.7648 6.2274 50.5624C6.2274 50.2243 6.29219 50.0136 6.38905 49.7177C6.45043 49.5289 6.45862 49.3155 6.52069 49.1258C6.6039 48.8775 6.5391 48.643 6.56025 48.392C6.58071 48.1519 6.66801 47.9394 6.63732 47.6847C6.69734 47.4181 6.62982 47.1039 6.623 46.8345C6.6039 45.998 6.38768 45.0123 5.83726 44.523C5.31547 44.0585 4.61636 43.9981 4.025 44.1721C2.90641 44.5038 2.23253 45.5152 1.56888 46.7007C1.3363 47.113 1.20056 47.6664 1.03141 48.1318C0.963888 48.3187 0.755857 48.4689 0.674009 48.6851C0.580566 48.8162 0.472117 49.1762 0.438696 49.3457C0.368443 49.7094 0.23544 50.0969 0.194516 50.4808C0.155638 50.8436 0.0847029 51.2128 0.0117217 51.5646C-0.0660339 51.9366 0.259312 52.3406 0.507585 52.4222C0.978893 52.5779 1.18761 51.4978 1.30629 51.0672C1.45498 50.5349 1.6862 50.0062 1.80283 49.4648C2.00063 48.5349 2.43306 47.7021 2.84366 46.9261C3.20857 46.2372 3.72285 45.6875 4.35854 45.5647C4.60408 45.6169 4.85167 45.5345 5.0979 45.6224C5.40483 45.736 5.52555 46.1813 5.58421 46.5679C5.61149 46.7658 5.52351 46.9563 5.56102 47.157C5.61081 47.4053 5.59922 47.6334 5.57125 47.8945C5.54397 48.1382 5.50577 48.3737 5.49827 48.6228C5.48804 48.9243 5.30865 49.2467 5.37072 49.5427C5.31684 50.0493 5.1702 50.5349 5.08835 51.0369C5.00172 51.572 4.83394 52.0997 4.72617 52.6402C4.50995 53.7268 3.7058 56.2261 3.48344 57.298C3.43365 57.538 3.27882 57.8028 3.29997 58.0474C3.20993 58.325 3.19425 58.6237 3.11308 58.9049C2.9337 59.5233 2.79933 60.1573 2.66223 60.7959C2.54697 61.3346 2.39214 61.8586 2.30551 62.4037C2.24208 62.8059 2.0818 63.2961 2.0818 63.7028C2.0818 64.3982 1.83762 65.176 2.00131 65.8714C2.15546 66.5274 2.3062 67.1366 2.82252 67.4289C3.56052 67.9053 4.16142 67.0084 4.62795 66.3899C5.20157 65.6305 5.72131 64.7711 6.20012 63.8998C6.44293 63.4619 6.82216 62.9525 6.98108 62.4486C7.14751 62.2755 7.20207 61.9933 7.34531 61.8C7.44352 61.669 7.58198 61.352 7.63996 61.1889C7.878 60.7876 8.06557 60.3213 8.27496 59.8889C8.44343 59.5416 8.64601 59.1935 8.78379 58.8215C8.8022 58.7895 8.76946 58.86 8.78379 58.8215Z" fill="#3D7E64"/>
<path d="M11.7883 52.4303C11.7248 52.8206 11.6109 53.09 11.4984 53.4573C11.3893 53.8174 11.3981 53.7743 11.2869 54.1344C11.1492 54.8389 11.7221 55.2191 12.0931 54.8169C12.3169 54.5769 12.3871 54.3314 12.4417 53.9777C12.5645 53.6204 12.5917 53.5004 12.7213 53.1513C12.823 52.9681 13.0112 52.434 13.0112 52.434C13.0583 52.3387 13.1544 52.1142 13.2186 52.0061C13.3366 51.8064 13.3325 51.9832 13.3679 51.7606C13.4696 51.133 12.943 50.7675 12.561 51.0048C12.3503 51.0625 12.132 51.2512 12.0775 51.5178C11.9629 51.7753 11.8387 52.1399 11.7883 52.4303C11.7862 52.4413 11.7992 52.3689 11.7883 52.4303Z" fill="#3D7E64"/>
<path d="M20.9996 60.2582C21.0828 59.9769 21.2274 59.6544 21.2758 59.3704C21.3079 59.1881 21.374 59.0058 21.3856 58.8134C21.4498 58.6109 21.5609 58.3709 21.5773 58.1482C21.6707 57.8596 21.7628 57.5197 21.8188 57.2165C21.9429 56.8592 22.1468 56.4396 22.1523 56.0438C22.2382 55.8707 22.2682 55.6957 22.3098 55.4996C22.4074 55.3182 22.4824 55.1606 22.4906 54.9279C22.5697 54.7978 22.5902 54.5789 22.6454 54.4286C22.7239 54.2188 22.8357 54.0484 22.8753 53.8056C22.9121 53.5848 22.9633 52.9289 23.1918 52.9289C23.5266 52.9289 23.8636 52.6797 24.1971 52.6302C24.4843 52.5899 24.7823 52.4002 25.0674 52.337C25.4467 52.337 25.8054 52.1556 26.1724 52.075C26.334 52.0942 26.525 52.0026 26.6962 52.0026H26.6996C26.7903 52.0026 27.7984 51.8679 27.8837 51.8313C28.0781 51.7507 28.2936 51.8157 28.5064 51.7809C28.7956 51.7287 29.0528 51.5876 29.3583 51.5949C29.7239 51.5949 30.0929 51.5958 30.466 51.5693C30.5478 51.5629 30.6461 51.5629 30.7259 51.5226C30.7886 51.6206 30.8718 51.693 30.9666 51.7232C31.1174 51.7745 31.2292 51.7424 31.3745 51.7424C31.6698 51.7424 32.0075 51.572 32.0723 51.1378C32.1084 50.8959 32.1725 50.6696 32.0395 50.4561C31.9202 50.2674 31.6467 50.1648 31.4734 50.1153C31.114 50.0091 30.7572 50.0924 30.3998 50.0356C30.2743 50.0146 30.1584 50.0906 30.0322 50.0906C29.8869 50.0906 29.7444 50.0961 29.5998 50.1346C29.4095 50.0952 29.2246 50.1905 29.0377 50.1905C28.87 50.1905 28.5139 50.2051 28.3823 50.3315C28.1115 50.4268 26.9172 50.4772 26.6335 50.5432C26.287 50.6229 25.9473 50.7356 25.5947 50.8015C24.9208 50.9261 24.2619 51.2963 23.5928 51.4328C23.6194 51.223 23.7347 51.0352 23.7347 50.8235C23.7347 50.6788 23.9257 50.6082 23.9911 50.4745C24.1364 50.2885 24.2299 49.7223 24.2012 49.4557C24.1664 49.1231 24.1466 48.7054 23.8179 48.6797C23.3234 48.4204 23.1542 48.9463 22.9653 49.4951C22.732 50.1694 22.5431 50.851 22.3678 51.5546C22.2573 51.9971 21.9975 51.9174 21.713 52.0466C21.4757 52.1547 21.1865 52.3352 20.9341 52.3544C20.6981 52.3673 20.2807 52.5239 20.0658 52.6641C19.9397 52.6806 19.8142 52.7365 19.6927 52.7795C19.5447 52.8327 19.3783 52.8327 19.2364 52.9105C19.0993 52.9115 18.9002 52.9582 18.7801 53.0278C18.6492 52.9985 18.4398 53.0416 18.3273 53.1304C18.079 53.3274 17.9426 53.8349 18.1485 54.1602C18.4296 54.6036 19.2228 54.118 19.5843 54.118C19.7855 54.118 20.1074 53.9953 20.293 53.8945C20.4587 53.8056 20.6367 53.7928 20.8072 53.7278C20.9866 53.6581 21.1183 53.528 21.3079 53.528C21.5084 53.5289 21.6687 53.4034 21.8597 53.3677C21.698 53.6911 21.5118 54.2078 21.4845 54.5981C21.4006 54.8033 21.3304 55.0452 21.3195 55.2788C21.2567 55.4923 21.1681 55.7039 21.1162 55.9155C20.9423 56.3361 20.8741 56.8372 20.7547 57.2962C20.6408 57.735 20.4512 58.1904 20.3932 58.6439C20.2425 58.9508 20.1491 59.4748 20.0843 59.8294C19.9103 60.2481 19.8155 60.6484 19.5495 61.0002C19.4226 61.2036 19.2944 61.4208 19.1526 61.6086C18.9425 61.8889 18.6581 62.1491 18.4766 62.4478C18.0421 62.9187 17.6336 63.4372 17.1725 63.8642C16.9556 64.0648 16.5484 64.2828 16.3977 64.5714C16.2899 64.6356 16.1917 64.7217 16.0819 64.7831C15.9959 64.8335 15.9168 64.8829 15.8295 64.9306C15.6911 64.9324 15.5662 64.9269 15.4462 65.0286C15.1986 65.1404 14.981 65.0039 14.7382 65.0039C14.6659 64.98 14.5738 65.0378 14.5165 65.0002C14.4504 64.9544 14.4115 64.8215 14.3467 64.7602C14.2355 64.5614 14.2028 64.3433 14.1264 64.1097C14.1332 63.9814 14.1305 63.8257 14.123 63.6965C14.1325 63.5343 14.1673 63.2302 14.1428 63.0753C14.2778 62.6759 14.243 62.1693 14.4265 61.7973C14.6148 62.6713 16.1944 62.1729 16.62 61.8898C17.2966 61.4281 18.1097 60.9306 18.5551 60.0419C18.7331 59.691 18.9009 59.2467 18.995 58.8372C19.0912 58.424 19.1007 58.0465 19.0946 57.6187C19.1696 57.3704 19.0434 56.9499 19.0093 56.686C18.9663 56.3571 18.8258 56.0576 18.7269 55.7571C18.6649 55.3787 18.1922 55.058 17.933 54.9976C17.6725 54.7621 17.2353 55.014 16.9849 55.1744C16.6364 55.2321 16.2606 55.7919 16.0157 56.0823C15.7402 56.4103 15.4939 56.7841 15.2593 57.1588C15.0451 57.5005 14.8746 57.878 14.6639 58.2334C14.5991 58.3425 14.5479 58.4597 14.4968 58.5807C14.4142 58.6219 14.3392 58.7016 14.2894 58.7996C14.2212 58.9288 14.2007 59.0946 14.1523 59.2412C13.8242 59.8505 13.6394 60.6255 13.2984 61.2201C13.1217 61.5279 13.001 61.8669 12.8441 62.1912C12.767 62.3488 12.6368 62.413 12.5658 62.5843C12.4908 62.7639 12.4396 62.8481 12.3442 63.0048C12.1484 63.3355 11.9465 63.6076 11.7398 63.92C11.5775 64.1381 11.3497 64.2856 11.2051 64.533C11.096 64.6026 11.0107 64.7272 10.905 64.7904C10.8088 64.8142 10.727 64.8976 10.6438 64.9654C10.5735 65.002 10.5019 64.9535 10.4235 64.981C10.1922 65.0524 10.1158 64.5293 10.1158 64.2636C10.1977 63.9979 10.2018 63.4162 10.167 63.156C10.2257 62.6841 10.2857 62.216 10.3457 61.7487C10.3784 61.6251 10.3382 61.5142 10.3791 61.407C10.4112 61.3236 10.4494 61.2861 10.4848 61.1972C10.5367 61.0699 10.5878 60.7346 10.5878 60.5916C10.5878 60.1977 10.7577 59.845 10.847 59.4776C11.0237 59.2183 11.0871 58.7007 11.1737 58.3754C11.2665 58.1821 11.3238 57.9421 11.3708 57.7268C11.405 57.5665 11.6696 57.4703 11.7392 57.2696C12.0475 56.719 11.9929 55.594 11.3627 55.5408C10.7399 55.4914 10.2993 57.3017 10.1411 57.878C10.0183 58.3251 9.78232 58.839 9.7564 59.3099C9.67387 59.5271 9.60157 59.8899 9.56064 60.1308C9.53677 60.2746 9.5129 60.4276 9.49039 60.5761C9.46515 60.7446 9.37785 60.8591 9.36012 61.0277C9.23393 62.2755 8.9536 63.6901 9.21347 64.9406C9.33965 65.5407 9.51222 65.8815 9.89349 66.2049C10.167 66.4908 10.8525 66.3708 11.1287 66.1317C12.0065 65.6589 12.5038 64.5815 13.1456 63.7185C13.1858 64.5696 13.357 65.2668 13.8427 65.8476C14.3126 66.4093 15.3323 66.5549 15.8964 66.182C16.5245 66.041 17.2162 65.4235 17.7093 64.8912C18.2195 64.3415 18.7583 63.8156 19.2467 63.2183C19.1075 63.7075 19.0291 64.2114 18.9077 64.7052C18.7583 65.1001 18.6546 65.6159 18.5898 66.041C18.5216 66.4935 18.7385 66.9141 19.1014 66.9141C19.2917 66.9141 19.4718 66.7043 19.5038 66.4505C19.5379 66.182 19.6232 65.9127 19.6443 65.6452C19.7828 65.3245 19.9281 64.7556 19.9656 64.391C20.0911 63.9457 20.1941 63.4656 20.25 62.9975C20.4055 62.6328 20.4396 62.2022 20.5767 61.8303C20.6101 61.7359 20.6401 61.6205 20.6415 61.5179C20.6572 61.3539 20.7424 61.2329 20.7697 61.0625C20.9259 60.8802 20.9225 60.5037 20.9996 60.2582ZM14.6727 60.893C14.728 60.7739 14.7287 60.6374 14.7744 60.5128C14.8664 60.3965 14.9019 60.2133 14.9701 60.0703C15.0983 59.8138 15.2695 59.517 15.3425 59.2201C15.5103 59.0616 15.6576 58.7144 15.779 58.4955C15.9584 58.2545 16.0682 57.9531 16.249 57.7149C16.5846 57.2577 16.8629 56.7758 17.2994 56.5092C17.3826 56.4579 17.727 56.1556 17.7932 56.3553C17.9057 56.665 17.9521 57.0113 18.0026 57.3503C18.0797 57.8606 18.0599 58.1427 17.8982 58.6292C17.7639 59.0332 17.5422 59.2815 17.3192 59.5829C17.0388 59.9604 16.5928 60.3589 16.2033 60.5037C15.9502 60.5953 15.6631 60.325 15.4012 60.588C15.1638 60.6677 14.8849 60.7135 14.6727 60.893C14.7102 60.8133 14.7178 60.8537 14.6727 60.893Z" fill="#3D7E64"/>
<path d="M54.2053 57.2832C54.2804 56.8627 53.9885 56.5411 53.702 56.5512C53.496 56.5457 53.3384 56.7537 53.2914 57.0148C53.2532 57.2218 53.1652 57.3648 53.1311 57.5819C52.8596 57.6918 52.8105 58.2269 52.6605 58.509C52.4906 58.8297 51.5842 60.7958 51.4027 61.1036C51.222 61.3391 50.9594 61.8338 50.87 62.138C50.677 62.5227 50.4056 62.8672 50.2398 63.2767C50.0127 63.4444 49.8729 63.8374 49.6846 64.0463C49.4172 64.3422 49.1601 64.5475 48.7945 64.542C48.5237 64.5365 48.3703 64.1013 48.2993 63.8017C48.3368 63.5983 48.2952 63.4297 48.3328 63.2355C48.3675 63.0605 48.3177 62.8113 48.3177 62.6226C48.3177 61.8988 48.3982 60.9708 48.5994 60.3066C48.6465 60.1554 48.6492 59.8292 48.6492 59.6542C48.6492 59.4948 48.7161 59.4637 48.7475 59.3006C48.7679 59.1971 48.7625 59.0862 48.7331 58.9873C48.7563 58.9122 48.7877 58.8608 48.8047 58.7766C48.8641 58.4458 48.8934 58.1032 48.9528 57.7697C48.9787 57.6295 48.9896 57.4729 48.9698 57.3309C49.0135 57.2301 49.0353 57.111 49.0353 56.9901C49.066 56.8691 49.1158 56.7619 49.1185 56.6282C49.1956 56.2333 49.229 55.7587 49.229 55.351C49.229 55.0139 49.199 54.5723 49.0387 54.2947C48.7897 53.865 48.4207 54.1472 48.1329 54.2663C48.0313 54.3057 47.8935 54.4239 47.8342 54.5439C47.7503 54.6566 47.5989 54.7949 47.5375 54.9204C47.4802 55.0001 47.4386 55.1119 47.3833 55.198C47.2756 55.2429 47.1364 55.3703 47.0457 55.4619C46.9693 55.5389 46.9025 55.646 46.8629 55.7642C46.7319 55.8687 46.6017 56.0592 46.5246 56.2379C46.3629 56.6025 46.099 56.9488 45.8739 57.2512C45.4653 57.7944 45.1475 58.4605 44.7451 58.9909C44.8024 58.6584 44.8542 58.3267 44.8767 57.9823C44.9095 57.8393 44.8774 57.7349 44.8528 57.5938C44.8603 57.4985 44.8924 57.4161 44.8924 57.318C44.9395 57.0359 44.9272 56.8297 44.8863 56.5494C44.8187 56.0913 44.6469 55.4335 44.2083 55.4335C43.8427 55.4042 43.533 56.062 43.308 56.357C43.0883 56.6437 42.9308 57.0203 42.6907 57.2631C42.5154 57.4399 42.4179 57.7413 42.2528 57.9236C42.1757 58.0116 42.1778 58.1197 42.1212 58.2113C42.0461 58.2782 41.9657 58.4009 41.9261 58.5127C41.716 58.8453 41.4616 59.1247 41.3402 59.5443C40.9617 59.8375 40.8416 60.4119 40.5551 60.8333C40.5715 60.4705 40.7454 60.0958 40.8696 59.7843C40.9698 59.5974 41.0865 59.4069 41.0565 59.1604C41.019 58.8352 41.1826 58.8086 41.2181 58.5054C41.2304 58.3991 41.2631 58.2919 41.2727 58.1829C41.3661 58.0968 41.4296 57.9566 41.4384 57.8036C41.5196 57.6057 41.521 57.3895 41.6014 57.1889C41.7044 56.9268 41.9513 56.5787 41.9725 56.2892C42.1212 56.0766 42.098 55.8247 42.2835 55.6653C42.439 55.5828 42.4963 55.384 42.5625 55.2008C42.6648 54.914 42.602 54.3927 42.4452 54.1866C42.231 53.9044 41.8981 53.8247 41.6662 54.095C41.3975 54.4074 41.3307 54.8206 41.1485 55.187C41.0183 55.3446 40.8641 55.9081 40.7843 56.1527C40.7079 56.2864 40.6779 56.5155 40.624 56.6731C40.5149 56.8627 40.444 57.1394 40.3976 57.3675C40.1923 57.6543 40.1718 58.2635 40.0409 58.6117C39.929 58.9103 39.768 59.3473 39.768 59.6872C39.5893 60.367 39.3308 60.9699 39.1098 61.6332C39.0641 61.7715 39.0212 61.9291 38.9789 62.0711C38.8909 62.2424 38.7408 62.4165 38.7204 62.6299C38.6583 62.7765 38.5812 62.903 38.5233 63.0569C38.4544 63.2419 38.3357 63.3821 38.2791 63.5672C38.1454 63.6872 37.9428 64.0848 37.8344 64.268C37.7177 64.4155 37.6154 64.5685 37.4838 64.6959C37.3174 64.7728 37.1994 64.9552 37.0302 65.0321C36.9211 65.0807 36.8358 65.1329 36.7226 65.1521C36.4914 65.1521 36.3379 65.1704 36.1306 65.0477C35.8891 64.9066 35.6668 64.5181 35.6668 64.1434C35.6668 63.9254 35.6422 63.7147 35.6634 63.5049C35.6763 63.372 35.6415 63.285 35.664 63.154C35.6968 63.0505 35.7268 62.9396 35.722 62.8251C35.7384 62.0931 36.0023 61.3537 36.2363 60.7042C36.3359 60.4257 36.4048 59.9786 36.5985 59.8192C36.8577 59.6057 37.1032 58.9726 37.1032 58.5778C37.11 58.2809 36.8413 57.9026 36.6285 57.8247C36.2295 57.6781 36.1197 58.2626 35.9471 58.5979C35.6415 59.1962 35.4737 59.9584 35.1136 60.4999C34.9574 60.7335 34.8728 61.0789 34.7371 61.3418C34.5952 61.6194 34.4561 61.9053 34.3115 62.1801C34.1321 62.5255 33.92 62.8187 33.7372 63.1604C33.6465 63.3317 33.5353 63.4224 33.4316 63.5763C33.3116 63.7504 33.2632 63.8961 33.1261 64.0582C32.841 64.2515 32.6493 64.6391 32.3526 64.837C32.2578 64.9075 31.985 65.055 31.8752 64.9588C31.7517 64.8031 31.6405 64.6418 31.5198 64.4824C31.4734 64.3487 31.4796 64.225 31.4373 64.0875C31.3077 63.6863 31.3698 63.285 31.3568 62.8535C31.4018 62.5566 31.5512 62.2699 31.5512 61.9712C31.5512 61.8375 31.6378 61.7064 31.6494 61.5736C31.7237 61.3546 31.7422 61.0596 31.8274 60.8691C31.9522 60.5896 32.0982 60.3075 32.2066 60.0152C32.2694 59.8476 32.3226 59.6808 32.4208 59.5471C32.5149 59.4206 32.6998 59.0697 32.7455 58.8929C32.8232 58.5915 33.0783 58.4312 33.2209 58.1829C33.4316 57.8137 33.6976 57.5031 33.9664 57.2136C34.2344 57.0322 34.4711 56.7693 34.7392 56.5833C34.9608 56.4788 35.1948 56.422 35.424 56.3322C35.5495 56.3542 35.5815 56.2938 35.6995 56.3808C35.7411 56.4642 35.7998 56.5485 35.8612 56.6025C35.9471 56.6841 36.0324 56.7464 36.1094 56.8425C36.2888 57.1073 36.6626 57.471 36.9422 57.3583C37.7614 57.0304 37.0002 55.8357 36.6476 55.4317C36.2213 54.9433 35.5222 54.9003 35.0065 55.0936C34.5932 55.2484 34.0666 55.4408 33.7543 55.8476C33.2925 56.247 32.9167 56.7693 32.5334 57.2841C32.3437 57.5397 32.1357 57.7825 32.0082 58.105C31.9666 58.149 31.94 58.2012 31.914 58.2653C31.8342 58.214 31.7442 58.2021 31.6576 58.2296C31.4536 58.2983 31.4625 58.4935 31.3582 58.6767C31.1863 58.9818 31.0771 59.3373 30.9012 59.6304C30.8064 59.7908 30.7532 59.9712 30.6638 60.1307C30.5854 60.2681 30.4565 60.5209 30.4067 60.6785C30.318 60.9625 30.1229 61.2346 30.0015 61.4994C29.8801 61.7642 29.7676 62.0738 29.6039 62.2946C29.4402 62.5649 29.3065 62.8434 29.1189 63.0963C28.9232 63.3583 28.7192 63.5892 28.5269 63.853C28.3441 64.0967 28.192 64.3065 27.9758 64.5016C27.718 64.5969 27.3258 64.8415 27.1293 64.5346C27.0959 64.4256 27.0263 64.3413 26.965 64.2616C26.9581 64.1352 26.9841 64.0088 26.967 63.8814C26.9684 63.7174 27.0066 63.5736 27.0072 63.4133C27.0543 63.2584 27.0475 62.9497 27.0495 62.7765C27.0795 62.6272 27.1409 62.4998 27.1293 62.334C27.1655 62.2213 27.1928 61.9978 27.186 61.8759C27.2698 61.6918 27.3012 61.416 27.323 61.2044C27.3981 60.8443 27.4977 60.4779 27.5816 60.1187C27.6682 59.7569 27.7875 59.3794 27.8196 59.0065C27.9008 58.6611 28.0713 58.3203 28.0713 57.9456C28.0713 57.7834 28.1647 57.3868 28.2377 57.2044C28.2882 57.0533 28.3727 56.9534 28.3748 56.772C28.3925 56.6721 28.4225 56.5814 28.4225 56.4733C28.4212 56.3167 28.4867 56.2113 28.4846 56.0492C28.4846 55.7917 28.6101 55.5572 28.5849 55.2897C28.5903 55.0954 28.5678 54.881 28.5269 54.6887C28.4144 54.1555 27.8817 54.0757 27.5884 54.3964C27.424 54.423 27.2637 54.5897 27.1709 54.7674C27.0557 54.9241 26.8947 54.9424 26.8347 55.1816C26.6805 55.3318 26.553 55.4445 26.3791 55.5471C26.2406 55.6268 26.1131 55.9099 26.0046 56.0592C25.7386 56.4193 25.4958 56.8132 25.2052 57.1247C24.9754 57.3712 24.7039 57.7523 24.5122 58.0446C24.6084 57.6955 24.6841 57.3922 24.8574 57.0872C25.0934 56.8435 25.2284 56.3423 25.3689 56.0088C25.4412 55.8394 25.5763 55.8467 25.6786 55.6909C25.7823 55.5673 25.8955 55.2942 25.8887 55.1046C25.8887 54.7116 25.9009 54.4395 25.6308 54.1976C25.2959 53.8998 24.9665 54.1784 24.7564 54.5659C24.6807 54.7042 24.5491 54.9177 24.5095 55.0835C24.4365 55.2237 24.2933 55.4646 24.2551 55.6176C24.1835 55.9035 24.0328 56.0913 23.9509 56.3579C23.7674 56.7262 23.6644 57.1595 23.4721 57.5159C23.2941 57.8558 23.2511 58.2452 23.1338 58.6153C22.9626 59.0514 22.8296 59.4646 22.6877 59.9117C22.5847 60.2351 22.3924 60.6171 22.3453 60.9662C22.1884 61.2878 22.0022 61.9245 21.9559 62.3148C21.8167 62.6877 21.7178 63.0404 21.6544 63.4471C21.5889 63.799 21.4423 64.1352 21.3611 64.4824C21.2806 64.8324 21.2404 65.1503 21.1265 65.492C21.0262 65.8008 20.986 66.1443 20.986 66.4787C20.986 67.3308 21.904 67.2703 21.9122 66.4091C21.9518 66.3175 21.9702 66.2185 21.9661 66.115C22.005 65.9831 22.0752 65.831 22.0971 65.6945C22.1339 65.5882 22.1687 65.4453 22.2041 65.3344C22.2423 65.2199 22.2696 65.0266 22.2839 64.9066C22.3269 64.6968 22.4244 64.4485 22.4176 64.2305C22.507 63.9657 22.5772 63.6982 22.6632 63.4334C22.7055 63.3015 22.6707 63.1091 22.7471 63.0065C22.818 62.9121 22.8896 62.815 22.9592 62.7197C23.084 62.553 23.1658 62.3322 23.2859 62.17C23.5048 61.8787 23.717 61.6817 23.8772 61.318C24.0464 60.925 24.2776 60.6107 24.4972 60.269C24.7244 59.9154 24.9351 59.5104 25.1875 59.1907C25.3055 59.1229 25.5449 58.7665 25.6056 58.597C25.8382 58.3643 26.0858 57.9951 26.2638 57.6909C26.5878 57.1467 27.0414 56.6877 27.4213 56.2278C27.4711 56.5567 27.2385 57.1137 27.1825 57.4326C27.1068 57.8622 26.9343 58.2534 26.8531 58.6639C26.7358 59.2612 26.6069 59.8494 26.4882 60.4449C26.4125 60.8343 26.2972 61.2099 26.2461 61.6112C26.1683 61.8173 26.0946 62.3514 26.0946 62.5814C26.0946 63.2703 25.8614 64.1022 26.1178 64.7573C26.2959 65.4141 26.6389 65.8539 27.1812 65.9428C27.5693 66.0069 28.2254 65.8521 28.5133 65.4627C28.8679 65.1659 29.1892 64.7655 29.4886 64.3752C29.6366 64.1819 29.8876 63.8979 29.9722 63.6386C30.1366 63.4279 30.4408 63.0715 30.4926 62.7683C30.3316 64.1086 30.6754 65.9593 31.8451 66.17C32.3472 66.4073 33.1138 65.7192 33.4412 65.2419C33.9814 64.8223 34.2849 64.0051 34.7037 63.4169C34.6259 64.1114 34.8387 65.0458 35.1491 65.5955C35.4403 66.1123 36.0187 66.3926 36.4941 66.3926C37.0057 66.3926 37.4238 66.1672 37.8692 65.8512C38.1556 65.6432 38.6153 65.0642 38.775 64.6647C38.6924 65.11 38.5396 65.6972 38.5533 66.1617C38.5376 66.6775 38.9789 67.2474 39.3458 66.826C39.4952 66.6537 39.5314 66.1526 39.5348 65.8896C39.6112 65.6313 39.6548 65.3234 39.693 65.0495C39.9372 64.5475 40.2735 64.115 40.4617 63.5855C40.6356 63.3198 40.7127 63.0001 40.8696 62.7142C41.0114 62.4568 41.1479 62.2122 41.2788 61.9437C41.3879 61.7193 41.4862 61.4637 41.6287 61.2759C41.7072 61.1732 41.7501 61.0294 41.8279 60.9186C41.9077 60.8022 42.0366 60.6419 42.098 60.5099C42.3688 59.9245 42.6764 59.3098 43.042 58.8224C43.3605 58.3826 43.6019 57.8457 43.9286 57.4069C43.9464 57.9987 43.8004 58.5778 43.8004 59.1604C43.7295 59.3931 43.7445 59.6726 43.7118 59.9154C43.6545 60.1426 43.6845 60.7426 43.5678 60.8993C43.4069 61.1146 43.34 61.5736 43.2486 61.8649C43.1811 62.0848 43.1695 62.4934 43.1975 62.7316C43.2445 63.1412 43.4369 63.5452 43.7806 63.5351C44.1762 63.5452 44.1455 63.0459 44.2492 62.7161C44.578 62.0546 44.9163 61.3611 45.2041 60.6657C45.522 60.2323 45.7805 59.657 46.0622 59.1733C46.3363 58.6969 46.661 58.2653 46.9277 57.777C47.1439 57.5911 47.2987 57.1586 47.4781 56.9195C47.5968 56.7592 47.7168 56.6016 47.8342 56.4422C47.9788 56.3616 48.0088 56.1133 48.1377 56.04C48.1261 57.0514 47.8724 58.0748 47.7312 59.0505C47.6098 59.8915 47.5047 60.7527 47.3963 61.602C47.2469 62.7692 47.176 65.2813 48.2946 65.6643C48.7986 66.0206 49.5762 65.7311 49.9915 65.2666C50.2337 65.0843 50.4417 64.7985 50.6361 64.5346C50.7984 64.3193 51.0631 64.0097 51.149 63.7357C51.3523 63.4902 51.4839 63.1036 51.6435 62.804C51.8161 62.4815 52.0439 62.1554 52.1728 61.8026C52.2846 61.6304 53.1686 59.7862 53.2621 59.5956C53.3575 59.3959 53.5206 59.1943 53.5785 58.9635C53.6324 58.8609 53.6829 58.7775 53.7504 58.695C53.8957 58.5173 53.9155 58.2534 53.983 58.0308C54.0894 57.8109 54.2053 57.5572 54.2053 57.2832C54.2265 57.1715 54.2053 57.2832 54.2053 57.2832Z" fill="#3D7E64"/>
<path d="M10.8259 14.1981C10.6261 15.1225 10.2755 15.9269 9.77553 16.6141C9.20123 17.4056 8.59283 17.9388 7.94896 18.2137C7.30509 18.4913 6.62166 18.6287 5.89662 18.6287C5.10951 18.6287 4.41653 18.4583 3.81632 18.1138C3.2161 17.7702 2.67249 17.2719 2.18549 16.6141C1.83559 16.1459 1.56686 15.6383 1.37929 15.0923C1.1924 14.5463 1.05804 13.9728 0.976871 13.3672C0.895705 12.7643 0.852052 12.1386 0.845914 11.4927C0.839093 10.8468 0.836365 10.1881 0.836365 9.51655C0.836365 8.84501 0.839093 8.18629 0.845914 7.5404C0.852052 6.8945 0.895705 6.26877 0.976871 5.66502C1.05804 5.06035 1.1924 4.48592 1.37929 3.9408C1.56686 3.39569 1.83559 2.88722 2.18549 2.41723C2.67249 1.76217 3.20996 1.26286 3.79722 0.919303C4.38448 0.575742 5.08428 0.402588 5.89662 0.402588C6.75875 0.402588 7.49948 0.575742 8.11743 0.919303C8.73606 1.26286 9.25443 1.71178 9.67322 2.26606C10.0913 2.81942 10.4167 3.4534 10.6479 4.16709C10.8784 4.88078 11.0319 5.60546 11.1076 6.34481H7.80777C7.67068 5.65585 7.45855 5.1483 7.17072 4.82123C6.88357 4.49416 6.45864 4.33109 5.89662 4.33109C5.59651 4.33109 5.33732 4.40621 5.11838 4.55646C4.90012 4.70763 4.72824 4.89269 4.60342 5.11165C4.52907 5.24541 4.46019 5.39566 4.39744 5.56332C4.33469 5.7319 4.2849 5.97101 4.24738 6.28159C4.20987 6.59309 4.17849 7.00353 4.15394 7.51566C4.1287 8.02688 4.11642 8.69476 4.11642 9.51655C4.11642 10.3384 4.1287 11.0053 4.15394 11.5175C4.17849 12.0314 4.20987 12.4455 4.24738 12.7643C4.2849 13.0841 4.33469 13.326 4.39744 13.4936C4.46019 13.6622 4.52907 13.8133 4.60342 13.9471C4.72824 14.1652 4.90012 14.3456 5.11838 14.4876C5.33732 14.6306 5.59651 14.7029 5.89662 14.7029C6.24652 14.7029 6.54049 14.6388 6.77785 14.5133C7.01384 14.3878 7.20823 14.2155 7.35897 13.9984C7.54586 13.7456 7.6775 13.4487 7.75184 13.1033C7.82687 12.7607 7.86438 12.4199 7.86438 12.0836V11.8326H5.89662V8.15697H11.126V10.6498C11.126 12.0928 11.0258 13.2765 10.8259 14.1981Z" fill="#3D7E64"/>
<path d="M21.5452 11.5934C21.5391 12.2292 21.4961 12.8467 21.4156 13.4431C21.3358 14.0377 21.2042 14.6048 21.0187 15.1407C20.8338 15.6794 20.5692 16.1788 20.2248 16.6423C19.7446 17.2873 19.2146 17.7793 18.6355 18.1183C18.0565 18.4582 17.3608 18.6267 16.5484 18.6267C15.7361 18.6267 15.0404 18.4582 14.4613 18.1183C13.8822 17.7793 13.3536 17.2873 12.8721 16.6423C12.5276 16.1788 12.263 15.6794 12.0788 15.1407C11.894 14.6048 11.7617 14.0377 11.6812 13.4431C11.6007 12.8467 11.5577 12.2292 11.5516 11.5934C11.5461 10.9566 11.5427 10.308 11.5427 9.64561C11.5427 8.98415 11.5461 8.3355 11.5516 7.69877C11.5577 7.06204 11.6007 6.44455 11.6812 5.84996C11.7617 5.25446 11.894 4.68735 12.0788 4.15048C12.263 3.6127 12.5276 3.11247 12.8721 2.64889C13.3536 2.00483 13.8822 1.51194 14.4613 1.17296C15.0404 0.83398 15.7361 0.663574 16.5484 0.663574C17.3608 0.663574 18.0565 0.83398 18.6349 1.17296C19.2139 1.51194 19.7439 2.00483 20.2241 2.64889C20.5685 3.11247 20.8332 3.6127 21.018 4.15048C21.2035 4.68735 21.3352 5.25446 21.415 5.84996C21.4954 6.44455 21.5384 7.06204 21.5446 7.69877C21.5507 8.3355 21.5534 8.98415 21.5534 9.64561C21.5541 10.308 21.5507 10.9566 21.5452 11.5934ZM18.2856 7.67312C18.2604 7.16923 18.2297 6.76429 18.1929 6.45646C18.156 6.15138 18.1063 5.91592 18.0456 5.75101C17.9835 5.58611 17.916 5.43677 17.8416 5.30393C17.7188 5.08955 17.5463 4.90723 17.3246 4.7579C17.1029 4.61039 16.8444 4.53527 16.5491 4.53527C16.2531 4.53527 15.9953 4.61039 15.7736 4.7579C15.5519 4.90723 15.3794 5.08955 15.2559 5.30393C15.1816 5.43677 15.1147 5.58611 15.0526 5.75101C14.9913 5.91592 14.9421 6.15138 14.9053 6.45646C14.8685 6.76429 14.8371 7.16923 14.8132 7.67312C14.7873 8.17884 14.7764 8.83573 14.7764 9.64561C14.7764 10.4564 14.7873 11.1096 14.8132 11.6053C14.8371 12.1018 14.8685 12.504 14.9053 12.8091C14.9421 13.1151 14.9913 13.3506 15.0526 13.5155C15.1147 13.6822 15.1816 13.8297 15.2559 13.9626C15.3794 14.1769 15.5519 14.3648 15.7736 14.5223C15.9953 14.6772 16.2531 14.756 16.5491 14.756C16.8444 14.756 17.1029 14.6772 17.3246 14.5223C17.5463 14.3648 17.7188 14.1769 17.8416 13.9626C17.916 13.8297 17.9835 13.6822 18.0456 13.5155C18.1063 13.3506 18.156 13.1151 18.1929 12.8091C18.2297 12.504 18.2604 12.1018 18.2856 11.6053C18.3095 11.1096 18.3225 10.4564 18.3225 9.64561C18.3225 8.83573 18.3095 8.17884 18.2856 7.67312Z" fill="#3D7E64"/>
<path d="M31.9802 11.5934C31.9747 12.2292 31.9324 12.8467 31.8506 13.4431C31.7715 14.0377 31.6385 14.6048 31.4529 15.1407C31.2701 15.6794 31.0034 16.1788 30.6597 16.6423C30.1795 17.2873 29.6495 17.7793 29.0712 18.1183C28.4921 18.4582 27.7964 18.6267 26.9833 18.6267C26.1717 18.6267 25.476 18.4582 24.8962 18.1183C24.3178 17.7793 23.7892 17.2873 23.3077 16.6423C22.9632 16.1788 22.6993 15.6794 22.5151 15.1407C22.3289 14.6048 22.1973 14.0377 22.1175 13.4431C22.037 12.8467 21.9933 12.2292 21.9872 11.5934C21.9817 10.9566 21.9783 10.308 21.9783 9.64561C21.9783 8.98415 21.9817 8.3355 21.9872 7.69877C21.9933 7.06204 22.037 6.44455 22.1175 5.84996C22.1973 5.25446 22.3289 4.68735 22.5151 4.15048C22.6993 3.6127 22.9632 3.11247 23.3077 2.64889C23.7892 2.00483 24.3178 1.51194 24.8962 1.17296C25.476 0.83398 26.1717 0.663574 26.9833 0.663574C27.7964 0.663574 28.4921 0.83398 29.0712 1.17296C29.6495 1.51194 30.1795 2.00483 30.6597 2.64889C31.0034 3.11247 31.2701 3.6127 31.4529 4.15048C31.6385 4.68735 31.7715 5.25446 31.8506 5.84996C31.9324 6.44455 31.9747 7.06204 31.9802 7.69877C31.9863 8.3355 31.989 8.98415 31.989 9.64561C31.9897 10.308 31.987 10.9566 31.9802 11.5934ZM28.7219 7.67312C28.6967 7.16923 28.666 6.76429 28.6292 6.45646C28.5917 6.15138 28.5412 5.91592 28.4812 5.75101C28.4184 5.58611 28.3516 5.43677 28.2772 5.30393C28.1545 5.08955 27.9812 4.90723 27.7602 4.7579C27.5385 4.61039 27.28 4.53527 26.984 4.53527C26.6887 4.53527 26.4302 4.61039 26.2085 4.7579C25.9875 4.90723 25.815 5.08955 25.6915 5.30393C25.6172 5.43677 25.5503 5.58611 25.4889 5.75101C25.4275 5.91592 25.3771 6.15138 25.3409 6.45646C25.3034 6.76429 25.2727 7.16923 25.2488 7.67312C25.2243 8.17884 25.2113 8.83573 25.2113 9.64561C25.2113 10.4564 25.2243 11.1096 25.2488 11.6053C25.2727 12.1018 25.3034 12.504 25.3409 12.8091C25.3771 13.1151 25.4275 13.3506 25.4889 13.5155C25.5503 13.6822 25.6172 13.8297 25.6915 13.9626C25.815 14.1769 25.9875 14.3648 26.2085 14.5223C26.4302 14.6772 26.6887 14.756 26.984 14.756C27.28 14.756 27.5385 14.6772 27.7602 14.5223C27.9812 14.3648 28.1545 14.1769 28.2772 13.9626C28.3516 13.8297 28.4184 13.6822 28.4812 13.5155C28.5412 13.3506 28.5917 13.1151 28.6292 12.8091C28.666 12.504 28.6967 12.1018 28.7219 11.6053C28.7451 11.1096 28.7588 10.4564 28.7588 9.64561C28.7588 8.83573 28.7451 8.17884 28.7219 7.67312Z" fill="#3D7E64"/>
<path d="M42.6286 11.6558C42.6286 12.2842 42.5925 12.888 42.5181 13.467C42.4445 14.0451 42.3122 14.6076 42.1205 15.1537C41.9309 15.6997 41.6437 16.2292 41.2624 16.7414C40.8061 17.3534 40.2735 17.7959 39.6644 18.0698C39.0546 18.341 38.4046 18.4784 37.7164 18.4784H32.8396V0.812988H37.7164C38.4046 0.812988 39.0546 0.950412 39.6644 1.22251C40.2735 1.49553 40.8061 1.93803 41.2624 2.55095C41.6437 3.06308 41.9309 3.59262 42.1205 4.13865C42.3122 4.68377 42.4445 5.24721 42.5181 5.8253C42.5925 6.40432 42.6286 7.01723 42.6286 7.66129V9.64569V11.6558ZM39.3786 7.83444C39.3663 7.37178 39.3445 7.00349 39.3145 6.73139C39.2831 6.45837 39.2456 6.24765 39.2026 6.09832C39.1603 5.9499 39.1071 5.80881 39.0457 5.67597C38.8984 5.37913 38.704 5.1391 38.4646 4.95678C38.2245 4.77538 37.9005 4.68377 37.4947 4.68377H36.0726V14.6076H37.4947C37.9005 14.6076 38.2245 14.5178 38.4646 14.3355C38.704 14.1523 38.8984 13.9132 39.0457 13.6154C39.1071 13.5009 39.1603 13.3671 39.2026 13.2187C39.2456 13.0694 39.2831 12.855 39.3145 12.5737C39.3445 12.2925 39.3663 11.9205 39.3786 11.4569C39.3895 10.9943 39.397 10.3905 39.397 9.64569C39.397 8.90177 39.3895 8.29802 39.3786 7.83444Z" fill="#3D7E64"/>
<path d="M9.67045 41.4236V33.4603L7.91549 37.5693H5.96751L4.21187 33.4603V41.4236H1.17053V24.7971H4.16003L6.9415 32.1282L9.72229 24.7971H12.7132V41.4236H9.67045Z" fill="#3D7E64"/>
<path d="M23.2238 34.7558C23.217 35.3724 23.1761 35.9679 23.0983 36.5441C23.0213 37.1213 22.8924 37.6701 22.7137 38.1923C22.5343 38.7109 22.2778 39.1964 21.9443 39.6453C21.4791 40.2702 20.9669 40.7457 20.4055 41.0746C19.8449 41.4025 19.1724 41.5665 18.3846 41.5665C17.5975 41.5665 16.9236 41.4025 16.3636 41.0746C15.8029 40.7466 15.2894 40.2702 14.8249 39.6453C14.4906 39.1964 14.2349 38.7109 14.0562 38.1923C13.8768 37.671 13.7486 37.1213 13.6715 36.5441C13.593 35.9679 13.5521 35.3724 13.5453 34.7558C13.5398 34.1392 13.5364 33.5107 13.5364 32.8694C13.5364 32.229 13.5398 31.6005 13.5453 30.983C13.5521 30.3674 13.593 29.7682 13.6715 29.1938C13.7486 28.6166 13.8768 28.0669 14.0562 27.5474C14.2349 27.0261 14.4906 26.5415 14.8249 26.0926C15.2894 25.4678 15.8029 24.9923 16.3636 24.6634C16.9236 24.3363 17.5975 24.1714 18.3846 24.1714C19.1724 24.1714 19.8449 24.3363 20.4055 24.6634C20.9669 24.9923 21.4791 25.4678 21.9443 26.0926C22.2778 26.5415 22.5343 27.0261 22.7137 27.5474C22.8924 28.0669 23.0213 28.6166 23.0983 29.1938C23.1761 29.7682 23.217 30.3674 23.2238 30.983C23.2293 31.6005 23.232 32.229 23.232 32.8694C23.232 33.5107 23.2293 34.1392 23.2238 34.7558ZM20.0659 30.9592C20.042 30.4709 20.0127 30.0788 19.9765 29.782C19.9404 29.486 19.8926 29.2561 19.834 29.0967C19.7746 28.9382 19.7091 28.7916 19.6368 28.6642C19.5175 28.4554 19.3511 28.2804 19.1362 28.1356C18.9214 27.9918 18.671 27.9203 18.3846 27.9203C18.0988 27.9203 17.8478 27.9918 17.6336 28.1356C17.4194 28.2804 17.2517 28.4554 17.1323 28.6642C17.0607 28.7916 16.9952 28.9382 16.9359 29.0967C16.8765 29.2561 16.8288 29.486 16.7926 29.782C16.7572 30.0788 16.7271 30.4709 16.704 30.9592C16.6794 31.4475 16.6678 32.0852 16.6678 32.8694C16.6678 33.6546 16.6794 34.2876 16.704 34.7677C16.7271 35.2487 16.7572 35.6371 16.7926 35.9331C16.8288 36.2299 16.8765 36.4571 16.9359 36.6174C16.9952 36.7778 17.0607 36.9225 17.1323 37.0489C17.2517 37.2587 17.4194 37.4383 17.6336 37.5913C17.8478 37.7425 18.0988 37.8185 18.3846 37.8185C18.671 37.8185 18.9214 37.7425 19.1362 37.5913C19.3511 37.4383 19.5175 37.2587 19.6368 37.0489C19.7091 36.9225 19.7746 36.7778 19.834 36.6174C19.8926 36.4571 19.9404 36.2299 19.9765 35.9331C20.0127 35.6371 20.042 35.2487 20.0659 34.7677C20.0897 34.2876 20.1027 33.6546 20.1027 32.8694C20.1027 32.0852 20.0897 31.4475 20.0659 30.9592Z" fill="#3D7E64"/>
<path d="M30.4953 41.4236L28.2418 35.0572H27.1852V41.4236H24.0552V24.3152H29.0991C29.8037 24.3152 30.4257 24.4709 30.9687 24.7833C31.5123 25.0967 31.9645 25.508 32.3287 26.0202C32.6916 26.535 32.9685 27.1186 33.1601 27.7755C33.3511 28.4324 33.4466 29.114 33.4466 29.8176C33.4466 30.393 33.3839 30.9244 33.259 31.4026C33.1335 31.8836 32.9726 32.3087 32.7755 32.677C32.579 33.0453 32.3574 33.3669 32.1139 33.638C31.8697 33.912 31.6221 34.1273 31.3711 34.2867L34.126 41.4236H30.4953ZM29.9578 28.6166C29.7198 28.2638 29.3856 28.087 28.9573 28.087H27.1852V31.5474H28.9573C29.3856 31.5474 29.7198 31.3715 29.9578 31.0187C30.1966 30.6678 30.3159 30.2657 30.3159 29.8176C30.3159 29.3706 30.1966 28.9702 29.9578 28.6166Z" fill="#3D7E64"/>
<path d="M41.5857 41.4238L37.507 32.8229V41.4238H34.377V24.3154H37.1134L41.1915 32.9182V24.3154H44.3222V41.4238H41.5857Z" fill="#3D7E64"/>
<path d="M48.6874 24.3154H45.5568V41.4229H48.6874V24.3154Z" fill="#3D7E64"/>
<path d="M57.13 41.4238L53.052 32.8229V41.4238H49.9213V24.3154H52.6577L56.7358 32.9182V24.3154H59.8665V41.4238H57.13Z" fill="#3D7E64"/>
<path d="M70.2244 37.3375C70.0334 38.2198 69.6985 38.9885 69.2224 39.6463C68.672 40.3984 68.0923 40.9078 67.477 41.1707C66.8639 41.4355 66.2104 41.5674 65.5188 41.5674C64.7672 41.5674 64.1049 41.4044 63.5333 41.0755C62.9604 40.7475 62.442 40.2711 61.9768 39.6463C61.6433 39.1973 61.3862 38.7118 61.2075 38.1932C61.0295 37.6719 60.9005 37.1222 60.8228 36.5441C60.7457 35.9697 60.7048 35.3742 60.6973 34.7567C60.6918 34.1392 60.6884 33.5107 60.6884 32.8694C60.6884 32.229 60.6918 31.6005 60.6973 30.984C60.7048 30.3674 60.7457 29.77 60.8228 29.1929C60.9005 28.6166 61.0295 28.0669 61.2075 27.5474C61.3862 27.028 61.6433 26.5415 61.9768 26.0944C62.442 25.4696 62.9549 24.9923 63.5156 24.6652C64.0762 24.3363 64.7433 24.1714 65.5188 24.1714C66.3414 24.1714 67.048 24.3363 67.638 24.6652C68.2287 24.9923 68.7232 25.421 69.1235 25.9497C69.5226 26.4792 69.8329 27.0829 70.0525 27.7637C70.2742 28.4444 70.4202 29.1379 70.4918 29.8415H67.344C67.2124 29.1855 67.0098 28.7009 66.7356 28.3885C66.4621 28.077 66.0556 27.9194 65.5188 27.9194C65.2323 27.9194 64.9854 27.9918 64.776 28.1356C64.5673 28.2804 64.4036 28.4572 64.285 28.6642C64.2133 28.7934 64.1472 28.9382 64.0865 29.0967C64.0271 29.2579 63.9808 29.4851 63.9453 29.7829C63.9091 30.0788 63.8791 30.47 63.8553 30.9592C63.8307 31.4494 63.8198 32.0852 63.8198 32.8694C63.8198 33.6546 63.8307 34.2913 63.8553 34.7787C63.8791 35.2688 63.9091 35.6646 63.9453 35.9697C63.9808 36.273 64.0271 36.5057 64.0865 36.666C64.1472 36.8263 64.2133 36.9711 64.285 37.0984C64.4036 37.3073 64.5673 37.4805 64.776 37.616C64.9854 37.7507 65.2323 37.8204 65.5188 37.8204C65.853 37.8204 66.1327 37.7599 66.3598 37.6399C66.5863 37.518 66.7718 37.3559 66.9136 37.1461C67.0937 36.9079 67.2185 36.6238 67.2908 36.294C67.3618 35.967 67.3979 35.6417 67.3979 35.3211V35.081H65.5188V31.5721H70.5102V33.9523C70.5109 35.3302 70.4154 36.458 70.2244 37.3375Z" fill="#3D7E64"/>
<path d="M79.1062 21.7866C79.2808 21.8141 79.3074 21.9039 79.4541 21.9506C79.5352 21.9286 79.6157 21.9076 79.6976 21.8874C79.9554 21.979 80.3967 21.9607 80.7282 21.9076C81.0365 21.9708 81.3441 22.0312 81.6524 22.0926C81.9873 22.2053 82.1946 22.1586 82.4258 22.3977C83.4339 23.4357 83.0827 24.6066 82.3494 25.7783C82.2969 25.8635 82.2226 26.2584 82.1523 26.4096C81.9661 26.8118 81.7192 27.355 81.516 27.7921C81.4048 28.0348 81.1422 28.1796 81.0617 28.4654C81.0719 28.4718 81.0815 28.4801 81.091 28.4856C81.9702 28.3161 83.1304 28.0321 84.0028 28.262C84.2852 28.3363 84.5634 28.1924 84.7299 28.6285C84.9161 29.1196 84.528 29.7032 84.3806 30.0339C84.1576 30.5378 84.0519 31.574 84.0921 32.1704C84.1228 32.6147 83.9346 33.0426 84.0485 33.311C84.0485 33.311 84.927 33.6885 84.942 33.6967C84.9624 33.7059 84.9829 33.7123 85.0027 33.7187C85.236 34.8053 84.6228 35.0902 84.1542 35.7544C83.9093 36.1016 83.6256 36.3838 83.3664 36.7118C82.8453 37.3696 82.3733 38.1401 81.9409 38.9097C81.8809 38.9573 81.8195 39.0049 81.7588 39.0517C81.6183 39.2752 81.5228 39.5317 81.3952 39.7654C81.2595 40.0127 81.1429 40.0091 81.016 40.2115C81.0208 40.2601 81.0262 40.3068 81.031 40.3545C80.9955 40.4653 80.6988 40.9353 80.6375 41.0068C80.5863 40.9573 80.6327 40.949 80.5768 40.9857C80.5508 41.0123 80.5256 41.0407 80.5004 41.0681C80.5106 41.102 80.5208 41.135 80.5311 41.1689C80.4765 41.1772 79.9247 42.1263 79.9247 42.1263V42.2491C79.8565 42.2527 79.8899 42.228 79.8483 42.2711C79.8858 42.3553 79.881 42.3572 79.804 42.4323C79.8122 42.5642 79.4779 43.113 79.3634 43.3063C78.8893 44.1135 78.4351 45.0205 78.0135 45.8734C77.4386 47.0424 76.9741 48.1638 76.3316 49.3173C76.2927 49.4556 76.2504 49.5994 76.2108 49.7414C75.9182 50.3489 75.6263 51.0598 75.3317 51.5545C75.3214 51.5728 75.3221 51.7964 75.2866 51.8798C75.0404 52.4505 74.8262 53.1468 74.5289 53.7121C74.4429 53.8761 74.3727 54.521 74.3161 54.7309C74.241 55.0121 74.0698 55.3648 73.9218 55.5865C73.9007 55.6168 73.9055 55.8101 73.8618 55.8715C73.797 55.9631 73.7445 55.9054 73.7097 56.0345C73.6026 55.9988 73.6333 55.9768 73.5433 56.0538C73.3987 55.9365 73.3857 55.745 73.3011 55.5655C73.4389 54.9168 73.7186 54.5476 73.8468 53.8147C73.9027 53.7945 73.9853 53.7661 73.9982 53.713C74.2247 52.5541 74.773 51.5215 75.2266 50.4982C75.3664 50.1766 75.4838 49.6443 75.7109 49.3988C75.7504 49.3466 75.7921 49.3603 75.8337 49.3356C75.8139 48.8949 76.7401 47.1844 76.97 46.7291C77.0696 46.533 77.2278 45.9971 77.4092 45.9971C77.401 45.6196 77.7319 45.1909 77.9099 44.9179C78.0947 44.632 78.2339 44.1629 78.4248 43.8185C78.6069 43.4886 78.8498 43.1726 79.0326 42.8409C80.0393 41.004 81.0747 39.3238 82.063 37.485C82.5684 36.7594 83.0724 36.0348 83.5799 35.3082C83.7606 35.0224 84.0041 34.7998 84.1556 34.4727C84.1453 34.4663 84.1358 34.459 84.1249 34.4525C83.9837 34.3847 83.8418 34.316 83.7006 34.2482C82.9715 33.3128 83.5799 30.4169 83.9434 29.2204V29.1993C82.8317 29.1388 81.7997 29.3743 80.9417 29.77C80.9007 29.7499 80.8619 29.7279 80.8203 29.7087C80.7595 29.7627 80.6988 29.8177 80.6388 29.8708C80.4069 29.8369 80.1416 30.0247 80.1382 30.2574C79.8619 30.262 79.6335 30.6734 79.4254 30.8282C79.2972 30.9043 79.1976 30.9006 79.0619 30.9308C79.0592 30.8868 78.5551 30.6257 78.3941 30.5231C78.4091 30.4471 78.4241 30.5066 78.3941 30.4425C78.2809 30.4187 78.3218 30.3234 78.2741 30.2171C78.0893 29.8021 78.1868 29.2414 78.4555 28.8328C78.5422 28.8777 78.506 28.8429 78.6219 28.8539C78.6322 28.8942 78.6417 28.9354 78.6533 28.9739C78.6629 28.9483 78.6724 28.9217 78.6833 28.8942C78.8191 29.0151 78.9719 28.8777 79.1683 28.9144C79.1792 28.8246 79.8408 28.3857 79.9411 28.263C80.6804 27.3615 81.179 26.1118 81.8052 25.0051C81.8897 24.8558 82.4013 24.0367 82.3058 23.7628C82.1694 23.3679 81.1647 23.4165 80.971 23.4366C80.9608 23.4779 80.9519 23.5182 80.941 23.5576C80.778 23.564 80.7998 23.6281 80.6825 23.5805C80.6982 23.5044 80.7179 23.5493 80.6681 23.4779V23.5182C80.6286 23.5658 80.6538 23.5713 80.6225 23.6208C80.4581 23.5951 80.4165 23.7893 80.3046 23.8645C80.1989 23.8855 80.0925 23.9057 79.9868 23.9268C79.9738 24.0101 80.012 24.045 79.9718 24.0889C79.8701 24.1549 79.7092 24.1237 79.6082 24.0889C79.6041 24.0816 79.4916 23.8315 79.5775 23.8443C79.5018 23.7912 79.4172 23.8095 79.334 23.7225C79.1724 23.5493 78.862 22.6918 79.0025 22.46C78.9377 22.3986 78.9643 21.9589 79.0169 21.8883C79.0448 21.8553 79.0755 21.8205 79.1062 21.7866Z" fill="#3D7E64"/>
<path d="M95.4172 22.5005C95.4636 22.528 95.4663 22.5289 95.4915 22.582C95.7487 23.14 95.6375 23.8848 95.75 24.4757C96.0229 25.9141 96.7472 27.1198 96.2657 28.5875C96.1299 29.0034 96.029 29.39 95.7957 29.6667H95.7343C95.8558 29.1811 95.9894 28.8183 96.0849 28.2824C96.1586 27.8527 96.0324 27.2719 95.9622 26.9594C95.7234 25.883 95.3435 24.6471 95.1744 23.5797C95.1239 23.5999 95.0734 23.62 95.0216 23.6402C94.922 23.97 94.7549 24.3731 94.5673 24.5967C94.4991 24.681 94.33 24.7634 94.2795 24.8614C94.2338 24.9503 94.1854 25.1564 94.0981 25.249C94.0469 25.2765 93.9971 25.303 93.946 25.3305C93.7018 25.7464 93.4412 26.1541 93.1432 26.429C93.1514 26.5499 93.1398 26.5902 93.1282 26.7148C93.0572 26.7093 93.0729 26.7011 93.0218 26.735C92.987 27.0446 92.6801 27.1583 92.5511 27.3058C92.3199 27.5714 92.1262 27.7144 91.8684 27.937C91.8043 27.9645 91.7388 27.9901 91.6726 28.0176C91.6017 28.1065 91.4864 28.3337 91.3848 28.4464C91.3841 28.4464 90.994 28.4574 90.9442 28.4464C90.8801 28.1981 90.6611 28.0103 90.6714 27.6713C90.6911 27.0868 90.8678 25.0694 91.3084 24.7396C91.3793 24.823 91.571 24.9833 91.6119 25.1464C91.6856 25.4368 91.5383 26.6195 91.4298 26.9998C91.4387 27.0254 91.4503 27.0547 91.4592 27.0822C92.2401 26.626 92.8008 25.8848 93.4003 25.2288C93.785 24.8074 94.1806 24.4693 94.493 23.926C94.5789 23.7749 94.7522 23.4615 94.8115 23.2325C94.832 23.1473 94.7985 22.9806 94.8552 22.8862C94.8913 22.8807 94.9261 22.8724 94.9623 22.867C95.0346 22.8129 95.1184 22.6379 95.1894 22.561C95.2398 22.5884 95.2896 22.6159 95.3422 22.6434C95.351 22.5435 95.351 22.5646 95.4172 22.5005Z" fill="#3D7E64"/>
<path d="M86.3212 23.926H86.4269C86.86 24.9494 86.6656 25.6548 86.6247 26.756C86.6595 26.735 86.6949 26.7148 86.7297 26.6947C86.7713 26.7386 86.7591 26.7084 86.7754 26.7964C86.5456 27.368 86.592 28.199 86.3812 28.4867V28.5279C86.418 28.7304 86.4132 28.9493 86.2768 29.0776C86.1534 28.9951 85.9992 29.1793 85.8662 28.9961C85.7919 28.7954 85.6759 28.4665 85.6384 28.243C85.5436 27.6621 85.7598 26.8696 85.8962 26.4281C86.0374 25.9709 86.0368 25.4569 86.1084 25.0254C86.1691 24.6645 86.2755 24.3026 86.3212 23.926Z" fill="#3D7E64"/>
<path d="M88.1559 25.0034C88.2957 25.0529 88.4887 25.0355 88.6708 25.1454C89.7771 25.8133 88.1913 27.8655 87.9438 28.5453C87.9499 28.5655 87.9547 28.5874 87.9588 28.6076C88.4471 28.4528 89.0426 28.6332 89.475 28.9951C89.5807 30.4033 88.7015 31.215 88.2023 32.0899H88.2459C88.7472 31.8792 89.2479 31.6676 89.7471 31.4578C89.9606 31.3588 90.1898 31.0244 90.4299 31.0721V31.0913C90.1864 31.6978 89.3372 32.275 88.8536 32.6396C88.735 32.7285 88.2616 32.9429 88.2616 32.9429C88.2841 32.9786 88.1893 33.0171 88.1716 33.0262C87.9942 33.1105 87.7234 33.3295 87.5495 33.3121C87.4827 33.3038 87.0107 33.6941 86.9732 33.6776C86.7501 33.5796 86.6867 32.8183 86.8204 32.5782C86.9179 32.4051 87.3272 32.1495 87.4731 31.9864C87.8462 31.5723 88.1866 30.9621 88.4894 30.5819C88.6763 30.3456 89.1169 29.8462 89.0637 29.3808C88.8966 29.3524 88.8032 29.2617 88.6101 29.3002C88.3475 29.3515 87.8694 29.5073 87.6402 29.3414C87.422 29.1829 87.2903 28.4628 87.4117 28.1596C87.7405 27.3497 88.3196 26.8312 88.4894 25.9205C88.0147 25.653 87.6893 25.7932 87.1396 26.0625V26.0433C87.3272 25.5458 87.4459 25.2719 87.8224 25.0859C87.9328 25.0593 88.0454 25.0318 88.1559 25.0034Z" fill="#3D7E64"/>
<path d="M94.6731 32.1511C95.085 32.2226 95.9028 32.568 95.9178 33.1882C95.8326 33.2807 95.8531 33.3779 95.7958 33.5144C95.7262 33.6774 95.4609 33.9037 95.3551 33.9624C95.3599 34.0512 95.3599 34.0274 95.3408 34.1053C94.9364 34.3114 94.2407 35.5656 93.7346 35.0224C93.5729 34.8483 93.6009 34.5899 93.446 34.3691C93.6889 33.8762 93.8219 32.7805 94.3859 32.6385C94.4064 32.6587 94.4255 32.6797 94.446 32.7008C94.4487 32.7943 94.4685 33.0306 94.5217 33.1268C94.3968 33.4896 94.2557 33.7993 94.1431 34.2079C94.154 34.2198 94.1629 34.2336 94.1718 34.2473C94.255 34.174 94.4187 34.1914 94.5067 34.1053C94.7597 33.8524 94.9868 33.6188 95.1887 33.2505C95.0052 32.7934 94.5299 32.6266 94.1581 32.3948V32.3737C94.1684 32.327 94.1786 32.2794 94.1875 32.2327H94.2632C94.2891 32.3069 94.2986 32.2986 94.2939 32.3737C94.4296 32.3078 94.536 32.2794 94.6731 32.1511Z" fill="#3D7E64"/>
<path d="M110.067 23.4551C110.446 23.5449 110.739 23.6392 111.069 23.8014C111.159 23.8463 111.326 23.8051 111.447 23.8426C111.853 23.9672 112.173 24.0616 112.494 24.2897C112.671 24.417 112.897 24.407 113.009 24.5755C112.973 24.6461 112.948 24.6607 112.888 24.6983C112.674 24.5325 112.472 24.7762 112.296 24.8192C112.225 24.8055 112.155 24.7936 112.084 24.7798C112.039 24.8394 111.993 24.9017 111.948 24.9622C111.616 25.1655 110.188 24.5728 110.037 24.0048H109.886C109.86 24.0597 109.835 24.1138 109.81 24.1688C109.799 24.1614 109.79 24.155 109.78 24.1486C109.753 23.882 109.719 23.7666 109.81 23.5989C109.88 23.5614 110.013 23.5055 110.067 23.4551Z" fill="#3D7E64"/>
<path d="M119.571 24.9218C119.547 25.1582 119.367 25.2663 119.313 25.4715C119.163 25.4165 119.137 25.6419 118.996 25.7152C119.011 25.7766 119.055 25.7527 119.011 25.7766C118.97 25.9076 118.651 26.2346 118.511 26.3473C118.489 26.3272 118.487 26.2823 118.48 26.3263C118.404 26.4197 117.837 27.127 117.828 27.2223C117.771 27.2012 117.809 27.1865 117.752 27.2223C117.782 27.4513 117.462 27.6016 117.342 27.75C117.332 27.8132 117.323 27.8737 117.313 27.935C117.117 28.1806 115.94 29.3725 115.675 28.9538C115.145 28.5067 115.433 27.3615 115.585 26.6112C115.629 26.3913 115.596 25.804 115.585 25.6538C115.561 25.3093 115.656 25.083 115.797 24.8393C116.559 25.3249 116.413 26.1751 116.357 27.4669C116.524 27.3716 116.692 27.2772 116.858 27.182C117.224 26.7788 117.728 26.3931 118.177 25.98C118.29 25.8764 118.563 25.7381 118.661 25.6135C118.668 25.5732 118.674 25.5329 118.676 25.4916C118.91 25.1243 119.29 24.9044 119.511 24.5141C119.566 24.3373 119.622 24.1605 119.678 23.9846C119.901 23.8013 120.243 23.6392 120.51 23.6392C120.553 23.9433 120.592 24.2493 120.633 24.5544C120.644 24.9346 120.653 25.3157 120.663 25.6941C120.649 25.9662 120.633 26.2383 120.618 26.5095C120.623 26.4948 120.629 26.482 120.633 26.4683C120.699 26.3583 120.942 25.8911 120.997 25.9396C120.927 26.2026 120.944 26.6295 120.86 26.8347C120.752 27.1059 120.752 27.4476 120.663 27.7729C120.566 28.0706 120.472 28.3702 120.375 28.6689C120.328 28.8823 120.354 29.1389 120.329 29.3184C120.289 29.3597 120.249 29.4 120.209 29.4421C119.981 29.3762 119.698 29.0958 119.753 28.6689C119.946 27.1893 120.344 26.1165 120.042 24.493C119.818 24.5645 119.802 24.876 119.571 24.9218Z" fill="#3D7E64"/>
<path d="M129.22 24.5242C129.326 24.5306 129.433 24.5379 129.54 24.5425C129.514 24.6817 129.009 24.8366 129.085 24.9713C129.059 24.9639 129.034 24.9575 129.008 24.9511C128.968 25.1875 128.259 25.5915 128.131 25.5823C128.135 25.6236 128.14 25.6648 128.145 25.7051C128.101 25.7115 128.055 25.717 128.008 25.7243C127.996 25.805 128.02 25.8132 127.964 25.8673C127.45 26.3107 125.324 26.3757 124.75 26.1723C124.703 26.1559 124.503 26.2969 124.447 26.3143C124.297 26.3666 123.179 26.3061 123.023 26.2145C123.012 26.2392 123.003 26.2667 122.992 26.296C122.77 26.1907 122.594 26.2621 122.385 26.1925C122.233 26.143 122.12 26.0148 122.053 25.968C121.913 25.8773 121.532 25.8508 121.401 25.8059C121.126 25.7152 120.83 25.7995 120.673 25.5823C120.967 25.2104 121.552 25.4009 122.082 25.3386H123.796C124.027 25.3075 124.567 25.2259 124.811 25.3386C125.181 25.291 125.55 25.2443 125.918 25.1948C126.219 25.2534 126.534 25.0711 126.66 25.1352C126.953 25.0876 127.245 25.04 127.539 24.9923C127.597 24.9566 127.607 24.8741 127.677 24.8494C128.036 24.7193 128.991 24.7752 129.22 24.5242Z" fill="#3D7E64"/>
<path d="M84.5635 36.854C84.6385 36.8641 84.8697 37.0739 84.8813 37.0363C84.9809 37.2269 85.5579 38.6149 85.472 38.9291C85.4427 39.0455 85.3949 39.2104 85.3213 39.3579C85.1705 39.335 85.0894 39.4293 84.972 39.5008C84.8977 39.3505 84.6822 39.2067 84.5928 38.9932C84.4728 38.7019 84.3479 37.51 84.4407 37.4028C84.41 37.3579 84.4018 37.3689 84.38 37.302C84.4762 37.2287 84.4639 36.9639 84.5635 36.854Z" fill="#3D7E64"/>
<path d="M106.915 25.0437C107.026 25.0978 107.137 25.1509 107.248 25.2059C107.66 25.7134 107.679 26.3419 107.809 27.0391C108.316 29.7711 107.212 33.5631 106.885 36.0999C106.755 37.0967 106.888 38.0065 106.793 38.929C106.747 39.3807 107.048 39.9954 106.855 40.3143C106.716 40.6771 106.336 40.1448 106.293 39.9487C106.179 39.4329 106.178 37.7673 106.278 37.0766C106.527 35.3533 106.757 33.629 107.113 31.925C107.348 30.7944 107.643 29.4101 107.522 28.3007C107.418 27.3488 107.471 25.7748 106.809 25.4496C106.704 25.3983 106.643 25.5183 106.597 25.5109V25.2462C106.67 25.1958 106.849 25.1225 106.915 25.0437Z" fill="#3D7E64"/>
<path d="M98.8337 25.8372C98.8719 25.8573 98.9053 25.8784 98.9408 25.8985C99.0506 26.3603 98.6932 27.6713 98.5623 28.1789C98.5766 28.2063 98.5929 28.2338 98.6073 28.2595C98.788 28.1908 98.9892 28.3612 99.0929 28.4436C99.2225 28.4638 99.3548 28.4849 99.4858 28.505C99.7299 28.6012 100.038 28.6992 100.261 28.9118C100.344 28.9915 100.365 29.1115 100.456 29.1976C100.426 29.2581 100.396 29.3177 100.365 29.3809C99.8704 29.1802 99.0281 29.5751 98.6823 29.1152C98.5929 29.0107 98.5725 28.8119 98.4852 28.7075C98.4995 28.9549 98.4497 29.2902 98.4088 29.4816C98.4197 29.6456 98.4292 29.8078 98.4395 29.97C98.4292 30.1193 98.4197 30.2705 98.4088 30.4189C98.5159 30.7661 98.4756 31.4853 98.5623 31.9663C98.61 32.2365 98.7259 32.5874 98.698 32.9237C98.7334 32.9365 98.7689 32.9502 98.8023 32.964C99.3371 32.5828 99.6665 31.925 100.076 31.3561C100.133 31.2782 100.184 31.325 100.229 31.2535C100.19 31.1784 100.704 30.5526 100.789 30.3987C100.8 30.3804 100.853 29.5687 100.82 29.522C100.888 29.3928 100.855 29.1995 100.881 28.9933C100.972 28.2796 101.075 26.932 101.261 26.407C102.104 26.2641 101.795 27.7327 102.003 28.5462C102.232 28.4858 103.191 28.1651 103.398 28.3007C103.52 28.2494 103.903 28.1651 104.034 28.1999C104.204 28.2439 104.621 28.1413 104.595 28.057C104.633 27.9297 104.626 27.7785 104.701 27.6896C104.74 27.6447 104.868 27.6502 104.868 27.6502C105.034 27.4643 105.214 27.2792 105.429 27.2013C105.632 27.3717 105.632 27.7877 105.671 28.1386C105.733 28.7075 105.574 30.0588 105.458 30.745C105.407 31.0611 105.536 31.4431 105.458 31.7821C105.444 31.7895 105.428 31.7968 105.413 31.8032C105.372 31.7895 105.332 31.7766 105.292 31.7629C105.093 30.7899 105.15 29.6878 105.095 28.6873C105.065 28.7075 104.014 28.8898 103.972 28.8495C103.77 28.9778 102.698 29.0291 102.29 28.8724C102.219 28.8248 102.149 28.7771 102.077 28.7286V28.8092C102.108 28.8458 102.059 29.8316 101.971 29.8893C102.008 29.9388 102.011 29.9287 102.032 30.0112C101.983 30.0506 101.995 30.0588 101.941 30.0524C102.051 30.4253 101.682 30.6589 101.653 31.1307C101.604 31.1234 101.552 31.1188 101.501 31.1106C101.49 31.1518 101.481 31.1921 101.469 31.2333C101.2 31.0593 100.535 31.5311 100.44 32.0478C100.432 32.089 100.346 32.122 100.303 32.2301C100.313 32.2704 100.323 32.3117 100.333 32.3529C100.289 32.4775 99.7579 33.3396 99.6815 33.1875C99.3323 33.7345 98.9722 33.8581 98.3938 33.7986C98.0562 33.4532 97.9088 32.7285 97.7117 32.3327C97.5712 32.0542 97.4846 31.6759 97.4375 31.2746C97.4246 31.1564 97.4996 31.1033 97.4839 31.008C97.2179 29.4606 97.7806 27.6063 98.4374 26.3053C98.5466 26.0973 98.7369 25.9874 98.8337 25.8372Z" fill="#3D7E64"/>
<path d="M110.052 26.875C110.333 26.9208 110.433 27.1352 110.628 27.3019C110.804 27.4522 111.587 27.4467 111.779 27.5062C112.186 27.6308 112.574 27.3468 112.781 27.749C112.837 27.7133 112.793 27.6968 112.841 27.7307C112.985 27.8031 113.041 28.0321 113.129 28.1778C113.049 28.3189 112.963 28.5617 112.827 28.6881C112.758 28.7504 112.462 28.9098 112.418 28.9318C112.285 28.9968 112.162 28.8869 112.053 28.9529C111.607 29.2185 110.933 29.8489 110.78 30.6019C111.365 30.8658 112.069 29.8434 112.387 30.317V30.3986C112.425 30.4068 112.493 30.4407 112.523 30.4993C112.699 30.8392 112.459 31.1718 112.296 31.3541C111.571 31.1654 110.447 31.924 109.977 31.2332L109.916 30.6633C110.009 30.2978 110.303 29.9826 110.477 29.705C110.722 29.3175 110.914 28.8402 111.174 28.5452C111.046 28.4975 110.921 28.4508 110.794 28.4032C110.487 28.2089 110.116 27.8635 109.96 27.5667C110.013 27.3532 109.979 27.2057 110.005 26.9565C110.022 26.93 110.037 26.9025 110.052 26.875Z" fill="#3D7E64"/>
<path d="M117.784 27.2827C117.788 27.2955 117.794 27.3101 117.798 27.3237C117.794 27.3101 117.788 27.2955 117.784 27.2827Z" fill="#3D7E64"/>
<path d="M118.647 30.9888C119.011 31.249 119.092 31.9242 118.861 32.5563C118.955 32.4739 119.052 32.3942 119.148 32.3117C119.344 32.2522 119.543 32.1908 119.74 32.1285C120.258 31.9544 122.066 32.5078 122.302 32.9429C122.212 33.8252 121.193 35.2214 120.603 35.4688V35.5091C120.624 35.5164 120.646 35.5229 120.663 35.5302C121.127 35.2883 123.059 35.4157 123.651 35.7739C123.645 35.7931 123.641 35.8151 123.636 35.8353C123.348 35.7904 122.732 35.794 122.454 35.937C122.435 35.947 122.311 35.8994 122.257 35.8939C122.049 35.937 121.843 35.9764 121.635 36.0176C121.551 36.0414 121.364 35.9709 121.242 35.9983C120.451 36.1669 120.062 36.1303 119.376 36.4665C119.229 36.3914 119.163 36.3108 119.088 36.1403C119.133 35.958 119.179 35.7739 119.225 35.5897C119.901 35.467 121.699 34.1651 121.727 33.0446C121.716 33.0382 121.706 33.0318 121.697 33.0236C121.51 32.9759 121.285 33.0602 121.06 33.0236C120.605 32.9494 119.693 32.2577 119.073 32.7597C118.812 32.9704 118.423 33.8701 118.269 34.2265C118.144 34.2301 118.158 34.2329 118.103 34.3483C118.114 34.374 118.123 34.4015 118.134 34.4299C117.917 34.4903 117.894 34.898 117.784 35.1619C117.708 35.3497 117.522 35.5146 117.436 35.6923C117.367 35.8298 117.391 35.9415 117.36 36.079C117.285 36.2888 117.209 36.4986 117.134 36.7093C116.858 36.702 116.752 36.8137 116.511 36.6268C116.445 36.2924 116.306 36.0157 116.329 35.652C116.402 34.4812 117.705 33.0346 118.223 32.2906C118.348 32.1138 118.479 31.7987 118.542 31.5586C118.608 31.3122 118.56 31.1628 118.647 30.9888Z" fill="#3D7E64"/>
<path d="M114.433 32.6385C114.542 32.634 114.655 32.6276 114.722 32.6981C114.751 32.7256 114.745 32.7219 114.767 32.7586C114.722 32.7934 114.676 32.8282 114.63 32.8621C114.26 32.8007 113.631 33.0572 113.236 33.2487C113.144 33.2606 113.053 33.2762 112.963 33.2881C112.365 33.6866 111.569 33.7947 110.991 34.0843C110.623 34.2675 110.129 34.0165 109.81 34.3279C109.682 34.2913 109.625 34.2217 109.522 34.1658C109.513 33.9157 109.483 33.6903 109.567 33.4723C109.656 33.4255 109.717 33.3174 109.78 33.3083C109.871 33.322 109.869 33.4081 109.962 33.4521C110.061 33.4979 110.903 33.2121 111.008 33.1672C111.255 33.0636 111.554 33.093 111.794 32.9226C111.846 32.9372 111.897 32.95 111.948 32.962C112.375 32.8199 112.699 32.7338 113.145 32.677C113.417 32.6459 114.283 32.7824 114.433 32.6385Z" fill="#3D7E64"/>
</svg>
